$MeshFormat
2.2 0 8
$EndMeshFormat
$Nodes
142
1 0 0 0
2 1 0 0
3 1 1 0
4 0 1 0
5 0 0.09999999999981467 0
6 0 0.1999999999995579 0
7 0 0.2999999999992664 0
8 0 0.3999999999989749 0
9 0 0.4999999999986943 0
10 0 0.5999999999989468 0
11 0 0.69999999999921 0
12 0 0.7999999999994734 0
13 0 0.8999999999997368 0
14 0.09999999999981467 1 0
15 0.1999999999995579 1 0
16 0.2999999999992664 1 0
17 0.3999999999989749 1 0
18 0.4999999999986943 1 0
19 0.5999999999989468 1 0
20 0.69999999999921 1 0
21 0.7999999999994734 1 0
22 0.8999999999997368 1 0
23 1 0.8999999999995836 0
24 1 0.7999999999999998 0
25 1 0.7000000000006934 0
26 1 0.6000000000013869 0
27 1 0.5000000000020587 0
28 1 0.4000000000016644 0
29 1 0.3000000000012483 0
30 1 0.2000000000008322 0
31 1 0.100000000000416 0
32 0.8999999999995836 0 0
33 0.7999999999999998 0 0
34 0.7000000000006934 0 0
35 0.6000000000013869 0 0
36 0.5000000000020587 0 0
37 0.4000000000016644 0 0
38 0.3000000000012483 0 0
39 0.2000000000008322 0 0
40 0.100000000000416 0 0
41 0.9133974596216763 0.4500000000018615 0
42 0.4605742807381464 0.09236792741067908 0
43 0.08660254037843171 0.5499999999988205 0
44 0.5468402906274926 0.9152217186777682 0
45 0.9133974596219927 0.6500000000008651 0
46 0.6509201999022222 0.0888543020725694 0
47 0.3499999999991206 0.9133974596218086 0
48 0.08190748804971527 0.3475303635241763 0
49 0.7586725654706923 0.9103703875043345 0
50 0.9138693290130561 0.2508173017626651 0
51 0.07959225689679802 0.7459788032314668 0
52 0.2500000000010402 0.0866025403788042 0
53 0.8408174380938778 0.09056972474473643 0
54 0.9153227954948122 0.8495762630717529 0
55 0.08467720450543256 0.1504237369277891 0
56 0.150593231699023 0.9170502595852301 0
57 0.913476104520146 0.3501362169619445 0
58 0.8268080267265161 0.4000227028286438 0
59 0.8267971038241648 0.5000037838059264 0
60 0.740194927542843 0.4500044144403335 0
61 0.7401931677420031 0.550001366375068 0
62 0.6535903947466041 0.5000009634703078 0
63 0.6539624100660328 0.3996660322684086 0
64 0.5674132367139251 0.4492890262148755 0
65 0.567058380586924 0.5498816649483496 0
66 0.4804675945785755 0.4998617818616907 0
67 0.4804104109524131 0.5999572411357288 0
68 0.4808333042715232 0.3992029949381489 0
69 0.3938707812513869 0.4498441294679941 0
70 0.39442612313932 0.350801414511154 0
71 0.5670034207261414 0.649973151014514 0
72 0.4836609274158 0.7044542185659975 0
73 0.3943325211711275 0.6507352432843811 0
74 0.4807819782421215 0.2989417123119441 0
75 0.3073017552560592 0.4001075906647256 0
76 0.3071796769754129 0.3000000000026405 0
77 0.3072147840052682 0.4999919533565986 0
78 0.2205771365973817 0.4500000000021638 0
79 0.5701303236394861 0.7516124797965995 0
80 0.6541163631789313 0.7002642718022476 0
81 0.3987254670893102 0.7535358109395577 0
82 0.3071796769755317 0.7000000000009439 0
83 0.6535898384880988 0.8000000000002587 0
84 0.7386054505284971 0.747143410205924 0
85 0.2205771365974947 0.5500000000018079 0
86 0.3047536098153851 0.8109810542584347 0
87 0.2215627586076767 0.7487737367123762 0
88 0.8268888562051729 0.3001627035934825 0
89 0.8296981761686221 0.1994089234458537 0
90 0.7410578833522365 0.2499286045087929 0
91 0.7431601482469636 0.1494939110587009 0
92 0.653486361214769 0.1967429917983994 0
93 0.5596891567283782 0.1475064708395238 0
94 0.5647585225756758 0.2461396475415825 0
95 0.4738835212418798 0.2006125504552363 0
96 0.380388647536396 0.162958181974425 0
97 0.5672558538991335 0.348873235546477 0
98 0.8267954148199494 0.6000008583640163 0
99 0.6528983889292338 0.8994183955992399 0
100 0.08660254037861494 0.6499999999991771 0
101 0.4494733817703512 0.9157740970141545 0
102 0.4899817334730823 0.8167956118737412 0
103 0.08393456559302133 0.4498499977837557 0
104 0.9133979063146305 0.5500007736960191 0
105 0.08407329706071388 0.247189380266054 0
106 0.1794039491425493 0.1856343100128658 0
107 0.2508911402519857 0.9132469817448929 0
108 0.6536923509744069 0.6000202362685337 0
109 0.9137183489341548 0.7499293771789173 0
110 0.2288327370242446 0.3492006954954478 0
111 0.3939126281557326 0.5500650581846289 0
112 0.8265839953357714 0.6995122742917338 0
113 0.7399977904299263 0.6494904028845871 0
114 0.3072989805837624 0.6001320424716147 0
115 0.8183062327637178 0.8150509396653313 0
116 0.2205771365974199 0.6500000000013284 0
117 0.7407829625697204 0.3499640762739272 0
118 0.653550665612928 0.2985524313229312 0
119 0.9178724624824386 0.1530678781041626 0
120 0.8508723056676937 0.9167549204545935 0
121 0.1498875452108636 0.08296629115975279 0
122 0.2940842362158193 0.1890575670468165 0
123 0.09385434397709498 0.8440933898604134 0
124 0.3884573638918248 0.250395237717036 0
125 0.3493512757062658 0.07972803913535213 0
126 0.1999999999995609 0.8380531170038856 0
127 0.3992789991981753 0.8406928938274414 0
128 0.1633999302291476 0.2898261153516871 0
129 0.7469795572487513 0.06578358757520134 0
130 0.1535898384868484 0.5999999999988763 0
131 0.1535898384872145 0.699999999999221 0
132 0.1535898384867187 0.4999999999989004 0
133 0.1553736159967049 0.3977345286926884 0
134 0.7301442841499908 0.8325961894321293 0
135 0.5500000000017229 0.065256263531675 0
136 0.5826881150314788 0.8366096411895216 0
137 0.2359890604551962 0.2613872612264277 0
138 0.9267949192431389 0.926794919243098 0
139 0.9267949192431241 0.07320508075687601 0
140 0.07320508075664824 0.9267949192432314 0
141 0.07320508075678341 0.07320508075662228 0
142 0.149719839593669 0.7753798093614727 0
$EndNodes
$Elements
282
1 1 2 1 1 1 5
2 1 2 1 1 5 6
3 1 2 1 1 6 7
4 1 2 1 1 7 8
5 1 2 1 1 8 9
6 1 2 1 1 9 10
7 1 2 1 1 10 11
8 1 2 1 1 11 12
9 1 2 1 1 12 13
10 1 2 1 1 13 4
11 1 2 2 2 4 14
12 1 2 2 2 14 15
13 1 2 2 2 15 16
14 1 2 2 2 16 17
15 1 2 2 2 17 18
16 1 2 2 2 18 19
17 1 2 2 2 19 20
18 1 2 2 2 20 21
19 1 2 2 2 21 22
20 1 2 2 2 22 3
21 1 2 3 3 3 23
22 1 2 3 3 23 24
23 1 2 3 3 24 25
24 1 2 3 3 25 26
25 1 2 3 3 26 27
26 1 2 3 3 27 28
27 1 2 3 3 28 29
28 1 2 3 3 29 30
29 1 2 3 3 30 31
30 1 2 3 3 31 2
31 1 2 4 4 2 32
32 1 2 4 4 32 33
33 1 2 4 4 33 34
34 1 2 4 4 34 35
35 1 2 4 4 35 36
36 1 2 4 4 36 37
37 1 2 4 4 37 38
38 1 2 4 4 38 39
39 1 2 4 4 39 40
40 1 2 4 4 40 1
41 2 2 1 1 72 81 102
42 2 2 1 1 122 76 124
43 2 2 1 1 115 49 120
44 2 2 1 1 106 52 121
45 2 2 1 1 52 106 122
46 2 2 1 1 49 115 134
47 2 2 1 1 96 122 124
48 2 2 1 1 47 86 107
49 2 2 1 1 52 122 125
50 2 2 1 1 93 42 95
51 2 2 1 1 89 53 91
52 2 2 1 1 122 96 125
53 2 2 1 1 102 81 127
54 2 2 1 1 107 86 126
55 2 2 1 1 79 72 102
56 2 2 1 1 42 93 135
57 2 2 1 1 91 53 129
58 2 2 1 1 91 46 92
59 2 2 1 1 92 46 93
60 2 2 1 1 86 47 127
61 2 2 1 1 95 42 96
62 2 2 1 1 54 115 120
63 2 2 1 1 55 106 121
64 2 2 1 1 83 99 134
65 2 2 1 1 53 89 119
66 2 2 1 1 123 56 126
67 2 2 1 1 86 87 126
68 2 2 1 1 128 48 133
69 2 2 1 1 68 64 97
70 2 2 1 1 92 94 118
71 2 2 1 1 99 83 136
72 2 2 1 1 74 94 95
73 2 2 1 1 99 49 134
74 2 2 1 1 94 97 118
75 2 2 1 1 64 63 97
76 2 2 1 1 74 68 97
77 2 2 1 1 92 93 94
78 2 2 1 1 123 126 142
79 2 2 1 1 46 91 129
80 2 2 1 1 74 95 124
81 2 2 1 1 110 128 133
82 2 2 1 1 76 122 137
83 2 2 1 1 94 93 95
84 2 2 1 1 94 74 97
85 2 2 1 1 41 57 58
86 2 2 1 1 41 28 57
87 2 2 1 1 27 28 41
88 2 2 1 1 36 37 42
89 2 2 1 1 88 50 89
90 2 2 1 1 98 45 104
91 2 2 1 1 44 19 99
92 2 2 1 1 45 26 104
93 2 2 1 1 43 10 100
94 2 2 1 1 27 41 104
95 2 2 1 1 57 50 88
96 2 2 1 1 88 89 90
97 2 2 1 1 18 19 44
98 2 2 1 1 9 10 43
99 2 2 1 1 29 50 57
100 2 2 1 1 41 58 59
101 2 2 1 1 45 98 112
102 2 2 1 1 26 27 104
103 2 2 1 1 18 44 101
104 2 2 1 1 28 29 57
105 2 2 1 1 48 8 103
106 2 2 1 1 9 43 103
107 2 2 1 1 47 17 101
108 2 2 1 1 41 59 104
109 2 2 1 1 90 89 91
110 2 2 1 1 20 49 99
111 2 2 1 1 38 39 52
112 2 2 1 1 29 30 50
113 2 2 1 1 109 112 115
114 2 2 1 1 59 98 104
115 2 2 1 1 8 9 103
116 2 2 1 1 17 18 101
117 2 2 1 1 90 91 92
118 2 2 1 1 11 51 100
119 2 2 1 1 19 20 99
120 2 2 1 1 10 11 100
121 2 2 1 1 20 21 49
122 2 2 1 1 11 12 51
123 2 2 1 1 109 45 112
124 2 2 1 1 101 44 102
125 2 2 1 1 59 58 60
126 2 2 1 1 23 24 54
127 2 2 1 1 7 8 48
128 2 2 1 1 70 68 74
129 2 2 1 1 32 33 53
130 2 2 1 1 16 17 47
131 2 2 1 1 58 57 88
132 2 2 1 1 62 60 63
133 2 2 1 1 66 64 68
134 2 2 1 1 7 48 105
135 2 2 1 1 34 35 46
136 2 2 1 1 66 68 69
137 2 2 1 1 69 75 77
138 2 2 1 1 16 47 107
139 2 2 1 1 65 67 71
140 2 2 1 1 25 26 45
141 2 2 1 1 80 83 84
142 2 2 1 1 15 16 107
143 2 2 1 1 71 79 80
144 2 2 1 1 71 72 79
145 2 2 1 1 80 84 113
146 2 2 1 1 62 63 64
147 2 2 1 1 6 7 105
148 2 2 1 1 71 67 72
149 2 2 1 1 65 64 66
150 2 2 1 1 65 66 67
151 2 2 1 1 77 75 78
152 2 2 1 1 71 80 108
153 2 2 1 1 98 61 113
154 2 2 1 1 62 64 65
155 2 2 1 1 77 78 85
156 2 2 1 1 59 61 98
157 2 2 1 1 62 65 108
158 2 2 1 1 61 108 113
159 2 2 1 1 65 71 108
160 2 2 1 1 14 15 56
161 2 2 1 1 78 75 110
162 2 2 1 1 72 73 81
163 2 2 1 1 69 70 75
164 2 2 1 1 81 82 86
165 2 2 1 1 66 69 111
166 2 2 1 1 61 60 62
167 2 2 1 1 5 6 55
168 2 2 1 1 59 60 61
169 2 2 1 1 72 67 73
170 2 2 1 1 61 62 108
171 2 2 1 1 67 66 111
172 2 2 1 1 54 24 109
173 2 2 1 1 69 68 70
174 2 2 1 1 24 25 109
175 2 2 1 1 56 15 107
176 2 2 1 1 69 77 111
177 2 2 1 1 112 98 113
178 2 2 1 1 80 79 83
179 2 2 1 1 81 73 82
180 2 2 1 1 73 67 111
181 2 2 1 1 75 76 110
182 2 2 1 1 55 6 105
183 2 2 1 1 84 112 113
184 2 2 1 1 86 82 87
185 2 2 1 1 108 80 113
186 2 2 1 1 112 84 115
187 2 2 1 1 25 45 109
188 2 2 1 1 75 70 76
189 2 2 1 1 55 105 106
190 2 2 1 1 111 77 114
191 2 2 1 1 73 111 114
192 2 2 1 1 77 85 114
193 2 2 1 1 88 90 117
194 2 2 1 1 114 85 116
195 2 2 1 1 54 109 115
196 2 2 1 1 82 73 114
197 2 2 1 1 82 114 116
198 2 2 1 1 60 58 117
199 2 2 1 1 87 82 116
200 2 2 1 1 63 60 117
201 2 2 1 1 58 88 117
202 2 2 1 1 95 96 124
203 2 2 1 1 97 63 118
204 2 2 1 1 90 92 118
205 2 2 1 1 63 117 118
206 2 2 1 1 96 42 125
207 2 2 1 1 117 90 118
208 2 2 1 1 89 50 119
209 2 2 1 1 30 31 119
210 2 2 1 1 21 22 120
211 2 2 1 1 39 40 121
212 2 2 1 1 12 13 123
213 2 2 1 1 76 70 124
214 2 2 1 1 42 37 125
215 2 2 1 1 38 52 125
216 2 2 1 1 93 46 135
217 2 2 1 1 101 102 127
218 2 2 1 1 81 86 127
219 2 2 1 1 50 30 119
220 2 2 1 1 49 21 120
221 2 2 1 1 52 39 121
222 2 2 1 1 51 12 123
223 2 2 1 1 105 48 128
224 2 2 1 1 70 74 124
225 2 2 1 1 53 33 129
226 2 2 1 1 34 46 129
227 2 2 1 1 115 84 134
228 2 2 1 1 36 42 135
229 2 2 1 1 46 35 135
230 2 2 1 1 44 99 136
231 2 2 1 1 3 23 138
232 2 2 1 1 2 32 139
233 2 2 1 1 22 3 138
234 2 2 1 1 1 5 141
235 2 2 1 1 4 14 140
236 2 2 1 1 40 1 141
237 2 2 1 1 13 4 140
238 2 2 1 1 31 2 139
239 2 2 1 1 37 38 125
240 2 2 1 1 56 107 126
241 2 2 1 1 122 106 137
242 2 2 1 1 47 101 127
243 2 2 1 1 110 76 137
244 2 2 1 1 79 102 136
245 2 2 1 1 106 105 128
246 2 2 1 1 83 79 136
247 2 2 1 1 48 103 133
248 2 2 1 1 130 85 132
249 2 2 1 1 116 130 131
250 2 2 1 1 85 78 132
251 2 2 1 1 116 85 130
252 2 2 1 1 33 34 129
253 2 2 1 1 87 116 131
254 2 2 1 1 43 100 130
255 2 2 1 1 130 100 131
256 2 2 1 1 43 130 132
257 2 2 1 1 100 51 131
258 2 2 1 1 103 43 132
259 2 2 1 1 78 110 133
260 2 2 1 1 132 78 133
261 2 2 1 1 103 132 133
262 2 2 1 1 84 83 134
263 2 2 1 1 35 36 135
264 2 2 1 1 102 44 136
265 2 2 1 1 51 123 142
266 2 2 1 1 121 40 141
267 2 2 1 1 119 31 139
268 2 2 1 1 120 22 138
269 2 2 1 1 123 13 140
270 2 2 1 1 23 54 138
271 2 2 1 1 32 53 139
272 2 2 1 1 14 56 140
273 2 2 1 1 5 55 141
274 2 2 1 1 128 110 137
275 2 2 1 1 53 119 139
276 2 2 1 1 54 120 138
277 2 2 1 1 55 121 141
278 2 2 1 1 56 123 140
279 2 2 1 1 106 128 137
280 2 2 1 1 126 87 142
281 2 2 1 1 87 131 142
282 2 2 1 1 131 51 142
$EndElements
